{
	"asset":{
		"generator":"Khronos glTF Blender I/O v4.4.55",
		"version":"2.0"
	},
	"scene":0,
	"scenes":[
		{
			"name":"Scene",
			"nodes":[
				0,
				1,
				2,
				3,
				4,
				5,
				6
			]
		}
	],
	"nodes":[
		{
			"mesh":0,
			"name":"Cube",
			"translation":[
				0,
				1,
				0
			]
		},
		{
			"mesh":1,
			"name":"Cube.001",
			"scale":[
				0.12182699143886566,
				0.39600586891174316,
				0.39600586891174316
			],
			"translation":[
				-1.0347235202789307,
				0.9854156970977783,
				0
			]
		},
		{
			"mesh":1,
			"name":"Cube.002",
			"rotation":[
				0,
				0.7071068286895752,
				0,
				0.7071068286895752
			],
			"scale":[
				0.1459881067276001,
				0.4745430052280426,
				0.3274429142475128
			],
			"translation":[
				0.29740071296691895,
				0.4786180555820465,
				-1.020808219909668
			]
		},
		{
			"mesh":2,
			"name":"Cube.003",
			"scale":[
				0.20614130795001984,
				0.03532307222485542,
				0.36851340532302856
			],
			"translation":[
				-0.6464747190475464,
				0.16216814517974854,
				-0.5119920969009399
			]
		},
		{
			"mesh":3,
			"name":"Cylindre.002",
			"scale":[
				0.5207736492156982,
				0.41840827465057373,
				0.5207736492156982
			],
			"translation":[
				-1.054543137550354,
				0.9847190976142883,
				-0.3079763650894165
			]
		},
		{
			"mesh":4,
			"name":"Plan",
			"rotation":[
				0,
				0,
				-0.7071068286895752,
				0.7071068286895752
			],
			"scale":[
				0.41050830483436584,
				0.3057832717895508,
				0.42896878719329834
			],
			"translation":[
				-1.0597220659255981,
				0.9640394449234009,
				0
			]
		},
		{
			"mesh":2,
			"name":"Cube.004",
			"scale":[
				0.026089871302247047,
				0.07441550493240356,
				0.028211308643221855
			],
			"translation":[
				-0.4530077576637268,
				0.14811362326145172,
				-0.1554960161447525
			]
		}
	],
	"materials":[
		{
			"doubleSided":true,
			"name":"Material",
			"pbrMetallicRoughness":{
				"baseColorFactor":[
					0.800000011920929,
					0.800000011920929,
					0.800000011920929,
					1
				],
				"metallicFactor":0,
				"roughnessFactor":0.5
			}
		},
		{
			"doubleSided":true,
			"name":"Mat\u00e9riau.001",
			"pbrMetallicRoughness":{
				"baseColorFactor":[
					0.5051672458648682,
					0.5070009827613831,
					0.5078350305557251,
					1
				],
				"roughnessFactor":0.6968503594398499
			}
		},
		{
			"doubleSided":true,
			"name":"Mat\u00e9riau"
		}
	],
	"meshes":[
		{
			"name":"Cube",
			"primitives":[
				{
					"attributes":{
						"POSITION":0,
						"NORMAL":1,
						"TEXCOORD_0":2
					},
					"indices":3,
					"material":0
				}
			]
		},
		{
			"name":"Cube.001",
			"primitives":[
				{
					"attributes":{
						"POSITION":4,
						"NORMAL":5,
						"TEXCOORD_0":6
					},
					"indices":7
				}
			]
		},
		{
			"name":"Cube.002",
			"primitives":[
				{
					"attributes":{
						"POSITION":8,
						"NORMAL":9,
						"TEXCOORD_0":10
					},
					"indices":11
				}
			]
		},
		{
			"name":"Cylindre",
			"primitives":[
				{
					"attributes":{
						"POSITION":12,
						"NORMAL":13,
						"TEXCOORD_0":14
					},
					"indices":15,
					"material":1
				}
			]
		},
		{
			"name":"Plan",
			"primitives":[
				{
					"attributes":{
						"POSITION":16,
						"NORMAL":17,
						"TEXCOORD_0":18
					},
					"indices":19,
					"material":2
				}
			]
		}
	],
	"accessors":[
		{
			"bufferView":0,
			"componentType":5126,
			"count":12,
			"max":[
				1,
				0.6999881863594055,
				1
			],
			"min":[
				-1,
				-1,
				-1
			],
			"type":"VEC3"
		},
		{
			"bufferView":1,
			"componentType":5126,
			"count":12,
			"type":"VEC3"
		},
		{
			"bufferView":2,
			"componentType":5126,
			"count":12,
			"type":"VEC2"
		},
		{
			"bufferView":3,
			"componentType":5123,
			"count":18,
			"type":"SCALAR"
		},
		{
			"bufferView":4,
			"componentType":5126,
			"count":90,
			"max":[
				1,
				1,
				1
			],
			"min":[
				-1,
				-1,
				-1
			],
			"type":"VEC3"
		},
		{
			"bufferView":5,
			"componentType":5126,
			"count":90,
			"type":"VEC3"
		},
		{
			"bufferView":6,
			"componentType":5126,
			"count":90,
			"type":"VEC2"
		},
		{
			"bufferView":7,
			"componentType":5123,
			"count":168,
			"type":"SCALAR"
		},
		{
			"bufferView":8,
			"componentType":5126,
			"count":24,
			"max":[
				1,
				1,
				1
			],
			"min":[
				-1,
				-1,
				-1
			],
			"type":"VEC3"
		},
		{
			"bufferView":9,
			"componentType":5126,
			"count":24,
			"type":"VEC3"
		},
		{
			"bufferView":10,
			"componentType":5126,
			"count":24,
			"type":"VEC2"
		},
		{
			"bufferView":11,
			"componentType":5123,
			"count":36,
			"type":"SCALAR"
		},
		{
			"bufferView":12,
			"componentType":5126,
			"count":360,
			"max":[
				0.05000000074505806,
				1,
				1.2021321058273315
			],
			"min":[
				-0.05000000074505806,
				-1,
				-0.05000000074505806
			],
			"type":"VEC3"
		},
		{
			"bufferView":13,
			"componentType":5126,
			"count":360,
			"type":"VEC3"
		},
		{
			"bufferView":14,
			"componentType":5126,
			"count":360,
			"type":"VEC2"
		},
		{
			"bufferView":15,
			"componentType":5123,
			"count":660,
			"type":"SCALAR"
		},
		{
			"bufferView":16,
			"componentType":5126,
			"count":4,
			"max":[
				1,
				0,
				1
			],
			"min":[
				-1,
				0,
				-1
			],
			"type":"VEC3"
		},
		{
			"bufferView":17,
			"componentType":5126,
			"count":4,
			"type":"VEC3"
		},
		{
			"bufferView":18,
			"componentType":5126,
			"count":4,
			"type":"VEC2"
		},
		{
			"bufferView":19,
			"componentType":5123,
			"count":6,
			"type":"SCALAR"
		}
	],
	"bufferViews":[
		{
			"buffer":0,
			"byteLength":144,
			"byteOffset":0,
			"target":34962
		},
		{
			"buffer":0,
			"byteLength":144,
			"byteOffset":144,
			"target":34962
		},
		{
			"buffer":0,
			"byteLength":96,
			"byteOffset":288,
			"target":34962
		},
		{
			"buffer":0,
			"byteLength":36,
			"byteOffset":384,
			"target":34963
		},
		{
			"buffer":0,
			"byteLength":1080,
			"byteOffset":420,
			"target":34962
		},
		{
			"buffer":0,
			"byteLength":1080,
			"byteOffset":1500,
			"target":34962
		},
		{
			"buffer":0,
			"byteLength":720,
			"byteOffset":2580,
			"target":34962
		},
		{
			"buffer":0,
			"byteLength":336,
			"byteOffset":3300,
			"target":34963
		},
		{
			"buffer":0,
			"byteLength":288,
			"byteOffset":3636,
			"target":34962
		},
		{
			"buffer":0,
			"byteLength":288,
			"byteOffset":3924,
			"target":34962
		},
		{
			"buffer":0,
			"byteLength":192,
			"byteOffset":4212,
			"target":34962
		},
		{
			"buffer":0,
			"byteLength":72,
			"byteOffset":4404,
			"target":34963
		},
		{
			"buffer":0,
			"byteLength":4320,
			"byteOffset":4476,
			"target":34962
		},
		{
			"buffer":0,
			"byteLength":4320,
			"byteOffset":8796,
			"target":34962
		},
		{
			"buffer":0,
			"byteLength":2880,
			"byteOffset":13116,
			"target":34962
		},
		{
			"buffer":0,
			"byteLength":1320,
			"byteOffset":15996,
			"target":34963
		},
		{
			"buffer":0,
			"byteLength":48,
			"byteOffset":17316,
			"target":34962
		},
		{
			"buffer":0,
			"byteLength":48,
			"byteOffset":17364,
			"target":34962
		},
		{
			"buffer":0,
			"byteLength":32,
			"byteOffset":17412,
			"target":34962
		},
		{
			"buffer":0,
			"byteLength":12,
			"byteOffset":17444,
			"target":34963
		}
	],
	"buffers":[
		{
			"byteLength":17456,
			"uri":"Test_prison.bin"
		}
	]
}
